<svg xmlns="http://www.w3.org/2000/svg" width="90" height="40" viewBox="0 0 90 40">
    <path fill="#6EC2B3" fill-rule="nonzero" d="M21.56 25.756c4.12 0 6.566 3.14 6.566 7.08s-2.467 7.118-6.565 7.118c-4.099 0-6.587-3.136-6.587-7.08 0-3.94 2.467-7.118 6.587-7.118zm13.407.19l6.696 9.962v-9.947h2.202v13.805h-2.157l-6.995-10.364v10.35H32.5V25.947h2.467zm30.093.015L68.837 36.5l3.76-10.538h2.369L69.87 39.766h-2.114L62.62 25.961h2.439zm-9.614-.014l5.487 13.805h-2.4l-1.163-3.065h-5.917l-1.17 3.065h-2.354l5.487-13.805h2.03zm28.57 0l5.487 13.805h-2.4l-1.16-3.065h-5.945l-1.173 3.065h-2.326l5.487-13.805h2.03zm-77.673-.014c2.566 0 4.279 1.384 4.279 3.54a3.313 3.313 0 0 1-2.115 3.157 3.24 3.24 0 0 1 2.418 3.278c0 2.41-2.009 3.83-4.634 3.83H0V25.933h6.343zm15.218 1.936c-2.791 0-4.293 2.223-4.293 4.988 0 2.764 1.488 4.99 4.279 4.99 2.79 0 4.292-2.243 4.292-4.99 0-2.747-1.487-4.988-4.278-4.988zM6.287 33.791H2.252v3.887h4.053c1.339 0 2.364-.673 2.364-1.961 0-1.253-.969-1.926-2.382-1.926zm48.126-4.803l-2.178 5.663h4.356l-2.178-5.663zm28.57 0L80.81 34.65h4.352l-2.178-5.663zm-76.862-.953h-3.87v3.813h3.775c1.34 0 2.326-.708 2.326-1.944 0-1.235-.948-1.869-2.23-1.869zM47.294 0c2.54.057 4.577 2.13 4.6 4.683a4.58 4.58 0 0 1-1.276 3.186l-.025.025-.24.24.81.818a6.864 6.864 0 0 1 1.582 7.486 6.812 6.812 0 0 1-6.318 4.277v.018a6.927 6.927 0 0 1-5.638-2.984l-2.968 2.98-1.56-1.564 3.523-3.54a6.58 6.58 0 0 1-.232-1.735V8.152h2.206v5.487l7.245-7.278a2.349 2.349 0 0 0 .67-1.678 2.494 2.494 0 0 0-2.428-2.478H44.94v1.972h-2.192V0h4.546zm1.502 9.713l-6.407 6.44a4.719 4.719 0 0 0 4.038 2.364c2.544-.004 4.604-2.075 4.606-4.63a4.612 4.612 0 0 0-1.41-3.331h-.017l-.81-.843z"/>
</svg>
